<svg width="49" height="48" viewBox="0 0 49 48" fill="none" xmlns="http://www.w3.org/2000/svg">
<g clip-path="url(#clip0_49_237)">
<path d="M49 24C49 10.7452 38.0309 0 24.5 0C10.9691 0 0 10.7451 0 24C0 35.979 8.95934 45.9081 20.6719 47.7084V30.9375H14.4512V24H20.6719V18.7125C20.6719 12.6975 24.3296 9.375 29.9258 9.375C32.6064 9.375 35.4102 9.84375 35.4102 9.84375V15.75H32.3209C29.2771 15.75 28.3281 17.6001 28.3281 19.4981V24H35.123L34.0368 30.9375H28.3281V47.7084C40.0407 45.9081 49 35.9792 49 24Z" fill="#1877F2"/>
<path d="M34.0368 30.9375L35.123 24H28.3281V19.4981C28.3281 17.5999 29.2773 15.75 32.3209 15.75H35.4102V9.84375C35.4102 9.84375 32.6064 9.375 29.9258 9.375C24.3296 9.375 20.6719 12.6975 20.6719 18.7125V24H14.4512V30.9375H20.6719V47.7084C21.9383 47.9028 23.2182 48.0003 24.5 48C25.7818 48.0004 27.0618 47.9029 28.3281 47.7084V30.9375H34.0368Z" fill="white"/>
</g>
<defs>
<clipPath id="clip0_49_237">
<rect width="49" height="48" fill="white"/>
</clipPath>
</defs>
</svg>
