<svg width="255" height="125" viewBox="0 0 255 125" fill="none" xmlns="http://www.w3.org/2000/svg">
<rect width="255" height="125" rx="32" fill="white"/>
<circle cx="42" cy="37" r="32" fill="#FFDEE1"/>
<circle cx="215" cy="54" r="32" fill="#D2E9E1"/>
<circle cx="121.5" cy="81.5" r="39.5" fill="#BDDEFE"/>
<path d="M24.4602 39.5682V31.4545H62.6875V39.5682H48.4375V78H38.7102V39.5682H24.4602ZM68.8011 78V43.0909H78.483V78H68.8011ZM73.6648 38.5909C72.2254 38.5909 70.9905 38.1136 69.9602 37.1591C68.9451 36.1894 68.4375 35.0303 68.4375 33.6818C68.4375 32.3485 68.9451 31.2045 69.9602 30.25C70.9905 29.2803 72.2254 28.7955 73.6648 28.7955C75.1042 28.7955 76.3314 29.2803 77.3466 30.25C78.3769 31.2045 78.892 32.3485 78.892 33.6818C78.892 35.0303 78.3769 36.1894 77.3466 37.1591C76.3314 38.1136 75.1042 38.5909 73.6648 38.5909ZM95.0114 67.9545L95.0341 56.3409H96.4432L107.625 43.0909H118.739L103.716 60.6364H101.42L95.0114 67.9545ZM86.2386 78V31.4545H95.9205V78H86.2386ZM108.057 78L97.7841 62.7955L104.239 55.9545L119.398 78H108.057ZM136.71 39.5682V31.4545H174.938V39.5682H160.688V78H150.96V39.5682H136.71ZM186.256 78.6591C184.028 78.6591 182.044 78.2727 180.301 77.5C178.559 76.7121 177.18 75.553 176.165 74.0227C175.165 72.4773 174.665 70.553 174.665 68.25C174.665 66.3106 175.021 64.6818 175.733 63.3636C176.445 62.0455 177.415 60.9848 178.642 60.1818C179.869 59.3788 181.263 58.7727 182.824 58.3636C184.4 57.9545 186.051 57.6667 187.778 57.5C189.809 57.2879 191.445 57.0909 192.688 56.9091C193.93 56.7121 194.831 56.4242 195.392 56.0455C195.953 55.6667 196.233 55.1061 196.233 54.3636V54.2273C196.233 52.7879 195.778 51.6742 194.869 50.8864C193.975 50.0985 192.703 49.7045 191.051 49.7045C189.309 49.7045 187.922 50.0909 186.892 50.8636C185.862 51.6212 185.18 52.5758 184.847 53.7273L175.892 53C176.347 50.8788 177.241 49.0455 178.574 47.5C179.907 45.9394 181.627 44.7424 183.733 43.9091C185.854 43.0606 188.309 42.6364 191.097 42.6364C193.036 42.6364 194.892 42.8636 196.665 43.3182C198.453 43.7727 200.036 44.4773 201.415 45.4318C202.809 46.3864 203.907 47.6136 204.71 49.1136C205.513 50.5985 205.915 52.3788 205.915 54.4545V78H196.733V73.1591H196.46C195.9 74.25 195.15 75.2121 194.21 76.0455C193.271 76.8636 192.142 77.5076 190.824 77.9773C189.506 78.4318 187.983 78.6591 186.256 78.6591ZM189.028 71.9773C190.453 71.9773 191.71 71.697 192.801 71.1364C193.892 70.5606 194.748 69.7879 195.369 68.8182C195.991 67.8485 196.301 66.75 196.301 65.5227V61.8182C195.998 62.0152 195.581 62.197 195.051 62.3636C194.536 62.5152 193.953 62.6591 193.301 62.7955C192.65 62.9167 191.998 63.0303 191.347 63.1364C190.695 63.2273 190.104 63.3106 189.574 63.3864C188.438 63.553 187.445 63.8182 186.597 64.1818C185.748 64.5455 185.089 65.0379 184.619 65.6591C184.15 66.2652 183.915 67.0227 183.915 67.9318C183.915 69.25 184.392 70.2576 185.347 70.9545C186.316 71.6364 187.544 71.9773 189.028 71.9773ZM222.199 67.9545L222.222 56.3409H223.631L234.812 43.0909H245.926L230.903 60.6364H228.608L222.199 67.9545ZM213.426 78V31.4545H223.108V78H213.426ZM235.244 78L224.972 62.7955L231.426 55.9545L246.585 78H235.244Z" fill="black"/>
</svg>
