<svg width="237" height="116" viewBox="0 0 237 116" fill="none" xmlns="http://www.w3.org/2000/svg">
<circle cx="32" cy="32" r="32" fill="#FFE4E6"/>
<circle cx="205" cy="49" r="32" fill="#D2E9E1"/>
<circle cx="111.5" cy="76.5" r="39.5" fill="#BFDBFE"/>
<path d="M14.4602 34.5682V26.4545H52.6875V34.5682H38.4375V73H28.7102V34.5682H14.4602ZM58.8011 73V38.0909H68.483V73H58.8011ZM63.6648 33.5909C62.2254 33.5909 60.9905 33.1136 59.9602 32.1591C58.9451 31.1894 58.4375 30.0303 58.4375 28.6818C58.4375 27.3485 58.9451 26.2045 59.9602 25.25C60.9905 24.2803 62.2254 23.7955 63.6648 23.7955C65.1042 23.7955 66.3314 24.2803 67.3466 25.25C68.3769 26.2045 68.892 27.3485 68.892 28.6818C68.892 30.0303 68.3769 31.1894 67.3466 32.1591C66.3314 33.1136 65.1042 33.5909 63.6648 33.5909ZM85.0114 62.9545L85.0341 51.3409H86.4432L97.625 38.0909H108.739L93.7159 55.6364H91.4205L85.0114 62.9545ZM76.2386 73V26.4545H85.9205V73H76.2386ZM98.0568 73L87.7841 57.7955L94.2386 50.9545L109.398 73H98.0568ZM126.71 34.5682V26.4545H164.938V34.5682H150.688V73H140.96V34.5682H126.71ZM176.256 73.6591C174.028 73.6591 172.044 73.2727 170.301 72.5C168.559 71.7121 167.18 70.553 166.165 69.0227C165.165 67.4773 164.665 65.553 164.665 63.25C164.665 61.3106 165.021 59.6818 165.733 58.3636C166.445 57.0455 167.415 55.9848 168.642 55.1818C169.869 54.3788 171.263 53.7727 172.824 53.3636C174.4 52.9545 176.051 52.6667 177.778 52.5C179.809 52.2879 181.445 52.0909 182.688 51.9091C183.93 51.7121 184.831 51.4242 185.392 51.0455C185.953 50.6667 186.233 50.1061 186.233 49.3636V49.2273C186.233 47.7879 185.778 46.6742 184.869 45.8864C183.975 45.0985 182.703 44.7045 181.051 44.7045C179.309 44.7045 177.922 45.0909 176.892 45.8636C175.862 46.6212 175.18 47.5758 174.847 48.7273L165.892 48C166.347 45.8788 167.241 44.0455 168.574 42.5C169.907 40.9394 171.627 39.7424 173.733 38.9091C175.854 38.0606 178.309 37.6364 181.097 37.6364C183.036 37.6364 184.892 37.8636 186.665 38.3182C188.453 38.7727 190.036 39.4773 191.415 40.4318C192.809 41.3864 193.907 42.6136 194.71 44.1136C195.513 45.5985 195.915 47.3788 195.915 49.4545V73H186.733V68.1591H186.46C185.9 69.25 185.15 70.2121 184.21 71.0455C183.271 71.8636 182.142 72.5076 180.824 72.9773C179.506 73.4318 177.983 73.6591 176.256 73.6591ZM179.028 66.9773C180.453 66.9773 181.71 66.697 182.801 66.1364C183.892 65.5606 184.748 64.7879 185.369 63.8182C185.991 62.8485 186.301 61.75 186.301 60.5227V56.8182C185.998 57.0152 185.581 57.197 185.051 57.3636C184.536 57.5152 183.953 57.6591 183.301 57.7955C182.65 57.9167 181.998 58.0303 181.347 58.1364C180.695 58.2273 180.104 58.3106 179.574 58.3864C178.438 58.553 177.445 58.8182 176.597 59.1818C175.748 59.5455 175.089 60.0379 174.619 60.6591C174.15 61.2652 173.915 62.0227 173.915 62.9318C173.915 64.25 174.392 65.2576 175.347 65.9545C176.316 66.6364 177.544 66.9773 179.028 66.9773ZM212.199 62.9545L212.222 51.3409H213.631L224.812 38.0909H235.926L220.903 55.6364H218.608L212.199 62.9545ZM203.426 73V26.4545H213.108V73H203.426ZM225.244 73L214.972 57.7955L221.426 50.9545L236.585 73H225.244Z" fill="black"/>
</svg>
